# xmcd
#
# Track frame offsets: 
#        150
#        9475
#        33911
#        52976
#        70938
#        89916
#        109156
#        129376
#        151550
#        176389
#        203550
#        229886
#        233642
#        235502
#
# Disc length: 3260 seconds
#
# Revision: 0
# Processed by: cddbd v1.5.2PL0 Copyright (c) Steve Scherf et al.
# Submitted via: ExactAudioCopy v0.95b4
#
DISCID=a30cba0e
DTITLE=Daisy Chain - Wirklich oder falsch
DYEAR=1998
DGENRE=
TTITLE0=Overtüre
TTITLE1=Party on!
TTITLE2=Stranger Land
TTITLE3=Midnight
TTITLE4=Nimm mich auf
TTITLE5=Smile
TTITLE6=The one
TTITLE7=Walking down
TTITLE8=Far away
TTITLE9=Need you
TTITLE10=Wirklich oder falsch
TTITLE11=Bonus-Dreck
TTITLE12=Finale (I)
TTITLE13=Finale (II)
EXTD=
EXTT0=
EXTT1=
EXTT2=
EXTT3=
EXTT4=
EXTT5=
EXTT6=
EXTT7=
EXTT8=
EXTT9=
EXTT10=
EXTT11=
EXTT12=
EXTT13=
PLAYORDER=
